<?xml version="1.0" standalone="no"?>
<!DOCTYPE svg PUBLIC "-//W3C//DTD SVG 20010904//EN"
 "http://www.w3.org/TR/2001/REC-SVG-20010904/DTD/svg10.dtd">
<svg version="1.0" xmlns="http://www.w3.org/2000/svg"
 width="301.000000pt" height="167.000000pt" viewBox="0 0 301.000000 167.000000"
 preserveAspectRatio="xMidYMid meet">

<g transform="translate(0.000000,167.000000) scale(0.100000,-0.100000)"
fill="#000000" stroke="none">
<path d="M1580 1311 c-131 -76 -157 -88 -175 -79 -11 6 -75 42 -142 80 -68 37
-127 68 -132 68 -5 0 -51 -57 -103 -127 l-95 -128 -11 -125 c-11 -124 -12
-127 -79 -275 -59 -132 -70 -165 -88 -275 l-20 -125 -30 -5 c-22 -4 -30 -11
-30 -25 0 -20 8 -20 830 -20 823 0 830 0 830 20 0 14 -8 21 -26 23 -25 3 -26
6 -36 107 -12 116 -15 125 -45 125 -20 0 -21 -3 -14 -100 4 -56 10 -108 13
-116 5 -12 -20 -14 -178 -12 l-184 3 -62 111 -63 111 -100 47 -101 46 -122
-75 -122 -75 -46 -82 -47 -83 -206 -3 -207 -2 5 32 c31 184 38 210 81 308 26
58 51 116 57 129 l9 25 19 -32 c11 -18 27 -32 35 -32 28 0 28 32 0 84 l-28 51
12 114 11 115 71 93 c39 51 75 95 80 99 5 3 34 -8 64 -25 30 -17 80 -45 111
-62 l55 -31 -60 -41 c-33 -23 -62 -51 -65 -62 -3 -11 -17 -55 -30 -98 -22 -69
-23 -79 -9 -92 23 -24 38 -5 67 90 26 83 27 85 91 130 36 26 135 87 222 136
l156 89 56 -62 c31 -34 91 -101 134 -148 l78 -85 -44 -40 c-39 -36 -47 -51
-72 -137 -28 -98 -28 -128 0 -128 19 0 36 38 61 134 14 51 26 73 46 88 32 23
32 24 47 -74 11 -66 86 -245 118 -280 12 -14 19 -15 30 -7 20 17 17 32 -33
131 -37 74 -49 113 -65 205 l-20 115 -157 174 c-86 96 -163 174 -172 174 -8 0
-85 -41 -170 -89z"/>
<path d="M1030 695 c-10 -12 -4 -28 32 -87 30 -50 51 -73 64 -73 32 0 27 31
-16 105 -43 71 -58 82 -80 55z"/>
</g>
</svg>
